# xmcd
#
# Track frame offsets: 
#        300
#        19757
#        35973
#        49894
#        61612
#        74973
#        87582
#        104948
#        119637
#        132430
#        140254
#        154388
#
# Disc length: 2338 seconds
#
# Revision: 1
# Processed by: cddbd v1.5.2PL0 Copyright (c) Steve Scherf et al.
# Submitted via: ExactAudioCopy v1.0b1
#
DISCID=c5091e0c
DTITLE=Larry Willams - The Larry Williams Show Featuring Johnny 'Guita
DTITLE=r' Watson
DYEAR=1965
DGENRE=Rock and Roll
TTITLE0=Slow Down
TTITLE1=Louisana Hannah
TTITLE2=Two Hours Past Midnight
TTITLE3=Baby
TTITLE4=Out of Tears
TTITLE5=For Your Love
TTITLE6=Whole Lotta Shakin Going On
TTITLE7=Hootchy-Koo
TTITLE8=Sweet Little Baby
TTITLE9=Looking Back
TTITLE10=Stormville Groove
TTITLE11=Trust Me
EXTD=
EXTT0=
EXTT1=
EXTT2=
EXTT3=
EXTT4=
EXTT5=
EXTT6=
EXTT7=
EXTT8=
EXTT9=
EXTT10=
EXTT11=
PLAYORDER=
